<svg width="14" height="14" viewBox="0 0 14 14" fill="none" xmlns="http://www.w3.org/2000/svg">
<g clip-path="url(#clip0_278_613)">
<path d="M7.00175 0H6.99825C3.13863 0 0 3.1395 0 7C0 8.53125 0.4935 9.9505 1.33263 11.1029L0.46025 13.7034L3.15088 12.8433C4.25775 13.5765 5.57812 14 7.00175 14C10.8614 14 14 10.8596 14 7C14 3.14038 10.8614 0 7.00175 0Z" fill="#4CAF50"/>
<path d="M11.0749 9.88491C10.906 10.3618 10.2357 10.7573 9.70112 10.8728C9.33537 10.9507 8.85762 11.0128 7.24937 10.346C5.19225 9.49379 3.8675 7.40341 3.76425 7.26779C3.66537 7.13216 2.933 6.16091 2.933 5.15641C2.933 4.15191 3.44312 3.66279 3.64875 3.45279C3.81762 3.28041 4.09675 3.20166 4.3645 3.20166C4.45112 3.20166 4.529 3.20604 4.599 3.20954C4.80462 3.21829 4.90787 3.23054 5.0435 3.55516C5.21237 3.96204 5.62362 4.96654 5.67262 5.06979C5.7225 5.17304 5.77237 5.31304 5.70237 5.44866C5.63675 5.58866 5.579 5.65079 5.47575 5.76979C5.3725 5.88879 5.2745 5.97979 5.17125 6.10754C5.07675 6.21866 4.97 6.33766 5.089 6.54329C5.208 6.74454 5.61925 7.41566 6.22475 7.95466C7.00612 8.65028 7.63962 8.87254 7.86625 8.96704C8.03512 9.03704 8.23637 9.02041 8.35975 8.88916C8.51637 8.72029 8.70975 8.44029 8.90662 8.16466C9.04662 7.96691 9.22337 7.94241 9.40887 8.01241C9.59787 8.07803 10.598 8.57241 10.8036 8.67478C11.0092 8.77803 11.1449 8.82704 11.1947 8.91366C11.2437 9.00029 11.2437 9.40716 11.0749 9.88491Z" fill="#FAFAFA"/>
</g>
<defs>
<clipPath id="clip0_278_613">
<rect width="14" height="14" fill="white"/>
</clipPath>
</defs>
</svg>
